/* XPM */
static char * dpg4x_xpm[] = {
"32 32 758 2",
"  	c None",
". 	c #212129",
"+ 	c #535269",
"@ 	c #2F2D43",
"# 	c #2B2B41",
"$ 	c #222137",
"% 	c #2C2C40",
"& 	c #222237",
"* 	c #28273C",
"= 	c #262339",
"- 	c #17151E",
"; 	c #28263C",
"> 	c #232136",
", 	c #27263B",
"' 	c #2E2E43",
") 	c #29283E",
"! 	c #343449",
"~ 	c #2F2E43",
"{ 	c #37374C",
"] 	c #343248",
"^ 	c #39394F",
"/ 	c #3C3A50",
"( 	c #14151C",
"_ 	c #26243A",
": 	c #211F33",
"< 	c #2C2B40",
"[ 	c #3A3950",
"} 	c #414155",
"| 	c #434158",
"1 	c #49495F",
"2 	c #4B4A60",
"3 	c #515066",
"4 	c #55536A",
"5 	c #202233",
"6 	c #0A090C",
"7 	c #434255",
"8 	c #343448",
"9 	c #302E45",
"0 	c #27253A",
"a 	c #1E1C31",
"b 	c #2B293E",
"c 	c #37364B",
"d 	c #434257",
"e 	c #535268",
"f 	c #110F1B",
"g 	c #170F19",
"h 	c #080807",
"i 	c #2F2433",
"j 	c #251C2C",
"k 	c #241E2F",
"l 	c #201C2E",
"m 	c #1E1A2D",
"n 	c #211E30",
"o 	c #211F31",
"p 	c #262437",
"q 	c #242235",
"r 	c #2E2D41",
"s 	c #2A283C",
"t 	c #353449",
"u 	c #403F55",
"v 	c #515065",
"w 	c #1C2942",
"x 	c #385482",
"y 	c #4C84B9",
"z 	c #23313D",
"A 	c #83CBFF",
"B 	c #71AEF0",
"C 	c #507CC6",
"D 	c #466BA8",
"E 	c #3B588A",
"F 	c #32446B",
"G 	c #29324E",
"H 	c #1F1C2F",
"I 	c #1A111F",
"J 	c #1D1829",
"K 	c #262337",
"L 	c #262336",
"M 	c #2A273B",
"N 	c #2E2C40",
"O 	c #302D42",
"P 	c #38364B",
"Q 	c #3A394E",
"R 	c #3E3D52",
"S 	c #4E4E63",
"T 	c #314982",
"U 	c #518ADC",
"V 	c #46669C",
"W 	c #4C8EC7",
"X 	c #273A4F",
"Y 	c #98D6FF",
"Z 	c #83BCF8",
"` 	c #548CE3",
" .	c #568FE3",
"..	c #5893E6",
"+.	c #5A98EA",
"@.	c #5C9CF0",
"#.	c #67A9FD",
"$.	c #87C5FF",
"%.	c #7DB3E5",
"&.	c #333952",
"*.	c #597AA0",
"=.	c #4B6080",
"-.	c #3E4860",
";.	c #302E43",
">.	c #291F2F",
",.	c #30293B",
"'.	c #363043",
").	c #3B374A",
"!.	c #3E3B50",
"~.	c #434155",
"{.	c #464459",
"].	c #202039",
"^.	c #39599B",
"/.	c #5586DA",
"(.	c #3C527E",
"_.	c #4C93D1",
":.	c #22364A",
"<.	c #7EC0FF",
"[.	c #77B5F4",
"}.	c #81BEF9",
"|.	c #71ACF0",
"1.	c #6AA6EB",
"2.	c #6EAAEE",
"3.	c #7BB7F5",
"4.	c #88C4FD",
"5.	c #7FBDFB",
"6.	c #83C4FF",
"7.	c #465C7E",
"8.	c #8ACEFF",
"9.	c #84C4FF",
"0.	c #84C7FF",
"a.	c #81C7FF",
"b.	c #7FC3FF",
"c.	c #74ABE6",
"d.	c #628DC8",
"e.	c #5977AB",
"f.	c #536792",
"g.	c #4D5878",
"h.	c #444258",
"i.	c #48465B",
"j.	c #181933",
"k.	c #517CD5",
"l.	c #4A80D5",
"m.	c #2E456B",
"n.	c #4C96D6",
"o.	c #21364C",
"p.	c #77BBF7",
"q.	c #61A1E7",
"r.	c #63A2EA",
"s.	c #65A4EA",
"t.	c #69AAEC",
"u.	c #6CACEE",
"v.	c #6DADEF",
"w.	c #71B0F2",
"x.	c #77B5F5",
"y.	c #7EBDFE",
"z.	c #43587B",
"A.	c #80C3FF",
"B.	c #77B6FA",
"C.	c #76B6FB",
"D.	c #76B4FC",
"E.	c #7BBBFF",
"F.	c #6FACFA",
"G.	c #6DA7FB",
"H.	c #6FAAFF",
"I.	c #73AEFF",
"J.	c #78B4FF",
"K.	c #81C5FF",
"L.	c #413C4F",
"M.	c #3B5EAD",
"N.	c #37508E",
"O.	c #293B68",
"P.	c #253152",
"Q.	c #24243C",
"R.	c #4B96D6",
"S.	c #233950",
"T.	c #6FB3F1",
"U.	c #5B9CE1",
"V.	c #5B9AE3",
"W.	c #5A9AE3",
"X.	c #5B9BE3",
"Y.	c #5D9CE5",
"Z.	c #61A1E8",
"`.	c #65A5EB",
" +	c #6AAAEE",
".+	c #71B3F9",
"++	c #3D5377",
"@+	c #76BAFF",
"#+	c #6FAFF5",
"$+	c #72B0F7",
"%+	c #78B8FC",
"&+	c #6AA6F3",
"*+	c #659FF1",
"=+	c #68A0F3",
"-+	c #6AA3F5",
";+	c #6EA8FA",
">+	c #72ABFE",
",+	c #7AB9FF",
"'+	c #3C374B",
")+	c #36559E",
"!+	c #395AA4",
"~+	c #365BA5",
"{+	c #335EA6",
"]+	c #3163AC",
"^+	c #356EB5",
"/+	c #4787C4",
"(+	c #243951",
"_+	c #6AAFEF",
":+	c #5795DB",
"<+	c #5491DB",
"[+	c #5290DD",
"}+	c #4E90E1",
"|+	c #4C91E4",
"1+	c #5396E4",
"2+	c #5B9CE5",
"3+	c #62A2E9",
"4+	c #68AAF2",
"5+	c #394F74",
"6+	c #71B6FF",
"7+	c #6BABF2",
"8+	c #71B1F5",
"9+	c #66A3EF",
"0+	c #5F97EA",
"a+	c #6199EB",
"b+	c #649CEE",
"c+	c #67A0F2",
"d+	c #6BA5F6",
"e+	c #6FAAFA",
"f+	c #78B9FF",
"g+	c #302531",
"h+	c #243D6F",
"i+	c #274584",
"j+	c #2A4E94",
"k+	c #2C539A",
"l+	c #305EA4",
"m+	c #3668AF",
"n+	c #4883CB",
"o+	c #25374F",
"p+	c #67AEEE",
"q+	c #478AD5",
"r+	c #6696D1",
"s+	c #90A4C1",
"t+	c #A7A7AC",
"u+	c #B2ABA9",
"v+	c #A9ACB5",
"w+	c #8EA7C7",
"x+	c #5A98E0",
"y+	c #5DA0EA",
"z+	c #344A6E",
"A+	c #68ABF7",
"B+	c #6AA9EE",
"C+	c #64A0EA",
"D+	c #5991E3",
"E+	c #5C94E5",
"F+	c #5E96E8",
"G+	c #619AEB",
"H+	c #669FF0",
"I+	c #69A5F4",
"J+	c #6EAAF9",
"K+	c #76B8FF",
"L+	c #26161C",
"M+	c #334985",
"N+	c #314A8D",
"O+	c #36549E",
"P+	c #395CAA",
"Q+	c #3D65B4",
"R+	c #406DBC",
"S+	c #4379C6",
"T+	c #1B3350",
"U+	c #AECCEA",
"V+	c #E0D7D1",
"W+	c #EAE3E0",
"X+	c #F0ECEC",
"Y+	c #F1EDED",
"Z+	c #DCD8D9",
"`+	c #AEAFB5",
" @	c #969EAE",
".@	c #C3B6AD",
"+@	c #8DB2DD",
"@@	c #264068",
"#@	c #67A9F2",
"$@	c #5E9AE3",
"%@	c #538ADB",
"&@	c #568DDE",
"*@	c #5890E1",
"=@	c #6099EA",
"-@	c #64A0EE",
";@	c #68A4F3",
">@	c #6BA8F6",
",@	c #74B6FF",
"'@	c #210F14",
")@	c #2D437E",
"!@	c #2F478B",
"~@	c #324E97",
"{@	c #3555A3",
"]@	c #385DAE",
"^@	c #3964B2",
"/@	c #2F65B8",
"(@	c #C5CBD5",
"_@	c #DCD7D6",
":@	c #D7D3D4",
"<@	c #9A9898",
"[@	c #464445",
"}@	c #3E3D3D",
"|@	c #747373",
"1@	c #F5EFEE",
"2@	c #B4CAE4",
"3@	c #94949A",
"4@	c #AAA19E",
"5@	c #818187",
"6@	c #4E90E3",
"7@	c #4B80D1",
"8@	c #5085D6",
"9@	c #538BDA",
"0@	c #5790DE",
"a@	c #5B95E3",
"b@	c #5E99E6",
"c@	c #629DEA",
"d@	c #66A2ED",
"e@	c #69A5F0",
"f@	c #70B3FF",
"g@	c #1D0B0F",
"h@	c #2A407C",
"i@	c #2C4386",
"j@	c #2E4990",
"k@	c #324F9B",
"l@	c #3455A3",
"m@	c #305AAC",
"n@	c #8F9FC1",
"o@	c #DBD6D4",
"p@	c #D8D5D6",
"q@	c #D4D1D2",
"r@	c #B2AFB1",
"s@	c #424342",
"t@	c #4D4D4D",
"u@	c #313131",
"v@	c #ECE9EA",
"w@	c #E9E5E4",
"x@	c #BBB9B9",
"y@	c #7B7778",
"z@	c #A8A19D",
"A@	c #7791BC",
"B@	c #447BCC",
"C@	c #4D85D2",
"D@	c #558ED8",
"E@	c #5893DC",
"F@	c #5A96DE",
"G@	c #5D99E2",
"H@	c #609CE4",
"I@	c #639FE8",
"J@	c #66A3EB",
"K@	c #6DB0FD",
"L@	c #1B090B",
"M@	c #263C77",
"N@	c #2A3F7F",
"O@	c #2C448A",
"P@	c #2F4B95",
"Q@	c #304F9C",
"R@	c #3053A2",
"S@	c #E2D8CE",
"T@	c #A9AFBE",
"U@	c #DEDBDB",
"V@	c #D2CFD0",
"W@	c #DDDBDC",
"X@	c #3B3B3C",
"Y@	c #494949",
"Z@	c #646363",
"`@	c #E7E4E5",
" #	c #E2DFE0",
".#	c #E6E3E4",
"+#	c #929091",
"@#	c #827D7E",
"##	c #B0A59D",
"$#	c #4D80C4",
"%#	c #4D87CD",
"&#	c #548FD4",
"*#	c #5993D8",
"=#	c #5B95DB",
"-#	c #5D97DD",
";#	c #5F9AE0",
">#	c #619CE2",
",#	c #629EE5",
"'#	c #6AAAF4",
")#	c #190709",
"!#	c #213672",
"~#	c #273C78",
"{#	c #293F82",
"]#	c #2C468C",
"^#	c #2B4894",
"/#	c #7484AF",
"(#	c #A5A8B2",
"_#	c #22375C",
":#	c #B1AFAE",
"<#	c #D5D2D4",
"[#	c #E2DFDF",
"}#	c #5C5B5C",
"|#	c #464646",
"1#	c #908F8F",
"2#	c #DFDCDE",
"3#	c #E1DEDE",
"4#	c #DEDBDD",
"5#	c #F5F2F2",
"6#	c #474646",
"7#	c #A99F9A",
"8#	c #8B95A4",
"9#	c #4F89D1",
"0#	c #5288CC",
"a#	c #538AD0",
"b#	c #578ED3",
"c#	c #5892D6",
"d#	c #5B96D9",
"e#	c #5E99DC",
"f#	c #619BDF",
"g#	c #65A2E7",
"h#	c #160608",
"i#	c #21336D",
"j#	c #233872",
"k#	c #273C7B",
"l#	c #284185",
"m#	c #23408B",
"n#	c #9DA4B9",
"o#	c #6F80A8",
"p#	c #403E3A",
"q#	c #333333",
"r#	c #BDBABC",
"s#	c #DCD9DA",
"t#	c #868485",
"u#	c #3C3C3C",
"v#	c #BEBCBC",
"w#	c #DBD8D9",
"x#	c #E0DCDE",
"y#	c #E1DEDF",
"z#	c #C3C1C2",
"A#	c #B7B3B1",
"B#	c #1E477D",
"C#	c #BBADA0",
"D#	c #3E70B4",
"E#	c #457AC1",
"F#	c #497EC4",
"G#	c #4D84CA",
"H#	c #5188CD",
"I#	c #548CD0",
"J#	c #5990D3",
"K#	c #5B93D6",
"L#	c #5C92D4",
"M#	c #17070A",
"N#	c #21336B",
"O#	c #233672",
"P#	c #243877",
"Q#	c #273D80",
"R#	c #1F3A84",
"S#	c #B8BAC3",
"T#	c #3A4F83",
"U#	c #403D38",
"V#	c #424242",
"W#	c #373737",
"X#	c #C9C7C8",
"Y#	c #C7C5C6",
"Z#	c #595959",
"`#	c #E5E1E2",
" $	c #474748",
".$	c #323232",
"+$	c #FEF9F9",
"@$	c #27374E",
"#$	c #9AA2B3",
"$$	c #687FA4",
"%$	c #3D70B9",
"&$	c #4275BC",
"*$	c #4679C0",
"=$	c #4B7FC5",
"-$	c #4F84C7",
";$	c #5187CA",
">$	c #548ACF",
",$	c #5184C3",
"'$	c #17090A",
")$	c #223368",
"!$	c #22346D",
"~$	c #243673",
"{$	c #25397A",
"]$	c #1C367F",
"^$	c #B0B2BD",
"/$	c #9196A7",
"($	c #4D4D4B",
"_$	c #3A3A3A",
":$	c #666566",
"<$	c #ACA8A8",
"[$	c #A3A1A2",
"}$	c #D5D3D3",
"|$	c #797879",
"1$	c #3C3D3D",
"2$	c #D6D3D4",
"3$	c #6C6761",
"4$	c #7189B4",
"5$	c #848B9C",
"6$	c #3566B2",
"7$	c #3D6CB4",
"8$	c #4071B8",
"9$	c #4476BC",
"0$	c #477ABF",
"a$	c #4D80C2",
"b$	c #4F83C6",
"c$	c #4B7AB9",
"d$	c #170A0B",
"e$	c #233369",
"f$	c #233571",
"g$	c #233471",
"h$	c #233676",
"i$	c #1D337A",
"j$	c #9FA3B4",
"k$	c #C7C4C3",
"l$	c #D1CFD1",
"m$	c #D2D0D1",
"n$	c #A8A7A8",
"o$	c #AFADAE",
"p$	c #C0BCBB",
"q$	c #656463",
"r$	c #A09FA0",
"s$	c #373637",
"t$	c #4A4A4A",
"u$	c #4B4B4B",
"v$	c #474747",
"w$	c #B5B4B4",
"x$	c #A49F9B",
"y$	c #3B5890",
"z$	c #9E999B",
"A$	c #2D5AAA",
"B$	c #3663AB",
"C$	c #3B69B0",
"D$	c #3E6DB4",
"E$	c #4171B6",
"F$	c #4476B9",
"G$	c #477ABD",
"H$	c #4573B1",
"I$	c #160909",
"J$	c #15131A",
"K$	c #100F1A",
"L$	c #14172E",
"M$	c #192143",
"N$	c #1A295D",
"O$	c #8189A3",
"P$	c #C4C1C2",
"Q$	c #C2C1C2",
"R$	c #C6C4C5",
"S$	c #D4D2D3",
"T$	c #FFFFFF",
"U$	c #A4A1A3",
"V$	c #949294",
"W$	c #B0AFB0",
"X$	c #7C7C7C",
"Y$	c #585859",
"Z$	c #888787",
"`$	c #C2C0C0",
" %	c #5F6371",
".%	c #999491",
"+%	c #2752A3",
"@%	c #325AA2",
"#%	c #365FA6",
"$%	c #3866AC",
"%%	c #3B68AE",
"&%	c #3D6CB0",
"*%	c #4070B4",
"=%	c #3D69A8",
"-%	c #130704",
";%	c #222231",
">%	c #191923",
",%	c #110F19",
"'%	c #0F0E16",
")%	c #444348",
"!%	c #BFBDBF",
"~%	c #C7C5C7",
"{%	c #B2B1B2",
"]%	c #3E3E3E",
"^%	c #A5A4A5",
"/%	c #BAB8B9",
"(%	c #A1A0A1",
"_%	c #D7D5D6",
":%	c #D5D2D3",
"<%	c #DAD8D9",
"[%	c #D6D4D5",
"}%	c #B9B7B8",
"|%	c #797574",
"1%	c #7D7B7C",
"2%	c #264E9D",
"3%	c #2D549B",
"4%	c #2F569F",
"5%	c #335BA2",
"6%	c #3660A5",
"7%	c #3764A8",
"8%	c #3A67AB",
"9%	c #375F9F",
"0%	c #0F0300",
"a%	c #262635",
"b%	c #0E0E18",
"c%	c #1B1B29",
"d%	c #BDBBBD",
"e%	c #C3C2C2",
"f%	c #767576",
"g%	c #2F2F2F",
"h%	c #717071",
"i%	c #2B2B2B",
"j%	c #737272",
"k%	c #CCCACB",
"l%	c #CDCBCC",
"m%	c #D1CFD0",
"n%	c #A3A3A3",
"o%	c #878382",
"p%	c #6B6F7C",
"q%	c #254994",
"r%	c #2A4D94",
"s%	c #2C5196",
"t%	c #2D5399",
"u%	c #31599F",
"v%	c #335BA1",
"w%	c #355DA4",
"x%	c #315493",
"y%	c #090000",
"z%	c #1E1F2C",
"A%	c #252830",
"B%	c #191A23",
"C%	c #1C1C2A",
"D%	c #969599",
"E%	c #2E2E2E",
"F%	c #3F3F3F",
"G%	c #9F9D9F",
"H%	c #CCCBCC",
"I%	c #5E5E5F",
"J%	c #3B3B3B",
"K%	c #878686",
"L%	c #CAC9CA",
"M%	c #A6A4A4",
"N%	c #847F7F",
"O%	c #515F82",
"P%	c #274B9A",
"Q%	c #284B95",
"R%	c #294B94",
"S%	c #2A4D95",
"T%	c #2C5097",
"U%	c #2E559A",
"V%	c #2F569C",
"W%	c #2A4B86",
"X%	c #020000",
"Y%	c #191925",
"Z%	c #181721",
"`%	c #181722",
" &	c #15151F",
".&	c #20222A",
"+&	c #12141C",
"@&	c #C7C6C6",
"#&	c #5F6064",
"$&	c #303030",
"%&	c #C3C2C3",
"&&	c #838284",
"*&	c #383938",
"=&	c #9C9B9B",
"-&	c #CDCCCD",
";&	c #8A8786",
">&	c #08060B",
",&	c #0C0B15",
"'&	c #131A32",
")&	c #19284D",
"!&	c #1F3669",
"~&	c #254686",
"{&	c #2D549F",
"]&	c #26437C",
"^&	c #000000",
"/&	c #181725",
"(&	c #14141F",
"_&	c #46454C",
":&	c #CDCCCC",
"<&	c #303137",
"[&	c #525252",
"}&	c #C4C3C4",
"|&	c #C0BEC0",
"1&	c #A8A6A8",
"2&	c #3B3C3B",
"3&	c #262626",
"4&	c #B6B4B5",
"5&	c #BDBCBD",
"6&	c #838183",
"7&	c #747374",
"8&	c #0E0E17",
"9&	c #0D0D13",
"0&	c #100F18",
"a&	c #0D0B11",
"b&	c #0A080C",
"c&	c #0B0910",
"d&	c #13192F",
"e&	c #141D35",
"f&	c #030003",
"g&	c #20232A",
"h&	c #141721",
"i&	c #74747A",
"j&	c #BDBCBC",
"k&	c #8F8E91",
"l&	c #BBBABC",
"m&	c #C8C7C8",
"n&	c #333434",
"o&	c #666567",
"p&	c #CCCBCD",
"q&	c #939192",
"r&	c #797779",
"s&	c #0E111A",
"t&	c #2B2C37",
"u&	c #0F1019",
"v&	c #0B0A13",
"w&	c #100F17",
"x&	c #0F0E17",
"y&	c #080811",
"z&	c #202329",
"A&	c #12141E",
"B&	c #5C5D62",
"C&	c #B6B5B6",
"D&	c #B7B6B7",
"E&	c #B9B8B9",
"F&	c #ADACAD",
"G&	c #D0CED0",
"H&	c #8F8F8F",
"I&	c #3D3B41",
"J&	c #0A0C14",
"K&	c #202229",
"L&	c #0E0F17",
"M&	c #1F2128",
"N&	c #1F2129",
"O&	c #0D0E16",
"P&	c #333641",
"Q&	c #13131D",
"R&	c #191B28",
"S&	c #8C8C8F",
"T&	c #9F9FA1",
"U&	c #B8B7B8",
"V&	c #9A999C",
"W&	c #414146",
"X&	c #1D2027",
"Y&	c #181A21",
"Z&	c #12131B",
"`&	c #11121A",
" *	c #0F1018",
".*	c #101119",
"+*	c #1C1E25",
"@*	c #111119",
"#*	c #202228",
"$*	c #171820",
"%*	c #171920",
"&*	c #262831",
"**	c #141621",
"=*	c #22252F",
"-*	c #1E1F27",
";*	c #1D1F26",
">*	c #1E2027",
",*	c #22242D",
"'*	c #2A2C35",
")*	c #0E1019",
"!*	c #0E1018",
"~*	c #0F0F17",
"{*	c #14151D",
"]*	c #101117",
"^*	c #11131A",
"/*	c #1A1B23",
"                . + @ # $ % & * =                               ",
"              -       ;     >   , ' ) ! ~ { ] ^ /               ",
"              (       _     :       <       {   [ } | 1 2 3 4   ",
"            5 6 7 8 9 0     a       b       c       d       e   ",
"          f g h i j k l m n o p q r s       t       u       v   ",
"        w x y z A B C D E F G H I J K L M N O t P Q R       S   ",
"      T U V W X Y Z `  ...+.@.#.$.%.&.*.=.-.;.>.,.'.).!.~.{.2   ",
"    ].^./.(._.:.<.[.}.|.1.2.3.4.5.6.7.8.9.0.a.b.c.d.e.f.g.h.i.  ",
"    j.k.l.m.n.o.p.q.r.s.t.u.v.w.x.y.z.A.B.C.D.E.F.G.H.I.J.K.L.  ",
"  M.N.O.P.Q.R.S.T.U.V.W.X.Y.Z.`. +.+++@+#+$+%+&+*+=+-+;+>+,+'+  ",
")+!+~+{+]+^+/+(+_+:+<+[+}+|+1+2+3+4+5+6+7+8+9+0+a+b+c+d+e+f+g+  ",
"h+i+j+k+l+m+n+o+p+q+r+s+t+u+v+w+x+y+z+A+B+C+D+E+F+G+H+I+J+K+L+  ",
"M+N+O+P+Q+R+S+T+U+V+W+X+Y+Z+`+ @.@+@@@#@$@%@&@*@E+=@-@;@>@,@'@  ",
")@!@~@{@]@^@/@(@_@:@<@[@}@|@1@2@3@4@5@6@7@8@9@0@a@b@c@d@e@f@g@  ",
"h@i@j@k@l@m@n@o@p@q@r@s@t@u@v@w@x@y@z@A@B@C@D@E@F@G@H@I@J@K@L@  ",
"M@N@O@P@Q@R@S@T@U@V@W@X@Y@Z@`@ #.#+#@###$#%#&#*#=#-#;#>#,#'#)#  ",
"!#~#{#]#^#/#(#_#:#<#[#}#|#1#2#3#4#5#6#7#8#9#0#a#b#c#d#e#f#g#h#  ",
"i#j#k#l#m#n#o#p#q#r#s#t#u#v#w#x#y#z#A#B#C#D#E#F#G#H#I#J#K#L#M#  ",
"N#O#P#Q#R#S#T#U#V#W#X#Y#Z#`#y#r# $.$+$@$#$$$%$&$*$=$-$;$>$,$'$  ",
")$!$~${$]$^$/$($u@_$:$<$[$}$|$1$t@t@2$3$4$5$6$7$8$9$0$a$b$c$d$  ",
"e$f$g$h$i$j$k$l$m$n$o$p$q$r$s$t$u$v$w$x$y$z$A$B$C$D$E$F$G$H$I$  ",
"J$K$L$M$N$O$P$Q$R$Y#S$T$U$V$W$X$Y$_$Z$`$ %.%+%@%#%$%%%&%*%=%-%  ",
";%  >%,%'%)%Y#!%~%{%]%^%/%(%_%:%<%[%X#}%|%1%2%3%4%5%6%7%8%9%0%  ",
"a%    b%c%  d%e%f%g%]%h%S$i%j%<%k%l%m%n%o%p%q%r%s%t%u%v%w%x%y%  ",
"z%  A%B%C%  ~%D%E%F%_$G%H%I%J%K%m$L%l%M%N%O%P%Q%R%S%T%U%V%W%X%  ",
"  Y%Z%`% &.&+&@&#&u#$&L%%&&&V#*&=&L%-&;&;&>&,&'&)&!&~&{&3%]&^&  ",
"          /&(&_&:&<&[&}&|&1&2&|#3&4&5&6&7&  8&9&0&a&b&c&d&e&f&  ",
"            g&h&i&j&k&l&l&m&n&V#o&p&q&r&s&t&u&      v&  w&x&y&  ",
"              z&A&B&C&D&E&E&r$F&G&H&I&J&K&g&L&M&M&N&O&P&    Q&  ",
"                    R&S&T&U&C&V&W&J&X&Y&Z&`& *.*Y&+*@*#*M&$*%*&*",
"                            ^&**=*-*;*>*,*'*    )*!*~*{*]*^*/*  ",
"                                                          O&    "};
